<?xml version="1.0" standalone="no"?>
<!DOCTYPE svg PUBLIC "-//W3C//DTD SVG 20010904//EN"
 "http://www.w3.org/TR/2001/REC-SVG-20010904/DTD/svg10.dtd">
<svg version="1.0" xmlns="http://www.w3.org/2000/svg"
 width="1280.000000pt" height="1280.000000pt" viewBox="0 0 1280.000000 1280.000000"
 preserveAspectRatio="xMidYMid meet">

<g transform="translate(0.000000,1280.000000) scale(0.100000,-0.100000)"
fill="#000000" stroke="none">
<path d="M5510 10913 c-2 -306 1 -4757 3 -4759 2 -2 40 23 86 56 92 66 320
220 471 320 181 119 260 174 259 179 0 4 -52 48 -116 100 l-116 95 114 55
c147 72 293 139 347 159 l42 16 0 1908 0 1908 -545 0 -545 0 0 -37z"/>
<path d="M8229 9591 c-59 -80 -73 -88 -109 -59 -111 92 -133 108 -145 108 -7
0 -36 -30 -64 -67 -27 -38 -83 -107 -123 -154 -94 -111 -264 -315 -685 -825
-45 -54 -119 -144 -165 -198 l-84 -99 41 -37 c22 -20 58 -50 79 -66 22 -16
151 -121 287 -234 136 -113 314 -260 396 -327 81 -67 164 -136 183 -153 19
-18 106 -91 193 -162 86 -72 157 -135 157 -139 0 -5 19 -23 43 -41 47 -36 87
-69 267 -223 125 -107 342 -286 402 -332 20 -15 119 -97 220 -181 337 -283
613 -512 713 -593 39 -32 99 -82 135 -113 36 -31 70 -56 77 -56 7 0 18 10 24
22 6 12 20 30 30 41 17 19 19 18 74 -26 30 -26 61 -44 68 -41 7 3 118 134 247
290 129 157 242 292 250 302 30 33 296 354 348 420 30 37 65 79 80 94 14 15
24 29 21 31 -69 49 -119 90 -117 97 2 5 21 28 43 52 22 24 53 60 69 81 l28 38
-38 34 c-22 19 -111 93 -199 165 -88 73 -180 148 -204 169 -24 20 -59 47 -76
61 -18 14 -65 51 -104 84 -39 32 -75 56 -79 52 -3 -4 0 -12 8 -17 13 -9 13
-10 0 -6 -8 2 -15 12 -15 23 0 18 -27 41 -511 434 -99 79 -185 150 -192 157
-7 6 -39 33 -72 59 -58 45 -69 59 -52 66 20 8 95 109 86 116 -5 5 -36 31 -69
58 -33 27 -62 51 -65 54 -20 20 -158 136 -215 180 -38 30 -83 67 -100 81 -16
15 -116 96 -221 180 -105 85 -278 226 -384 314 -105 88 -218 180 -250 205 -32
25 -82 66 -113 93 -30 26 -59 47 -64 47 -6 0 -30 -26 -54 -59z m-114 -109 c39
-31 86 -69 105 -85 130 -103 177 -140 195 -155 11 -9 67 -54 125 -101 58 -46
107 -87 110 -90 6 -8 85 -72 166 -136 226 -180 474 -387 474 -396 0 -12 -60
-99 -68 -99 -8 0 -62 43 -447 355 -162 132 -313 254 -334 270 -21 17 -83 67
-137 112 -55 44 -142 116 -194 159 -52 42 -98 82 -101 87 -4 5 -41 -33 -84
-84 -42 -52 -87 -105 -98 -119 -12 -14 -60 -72 -107 -129 -198 -242 -338 -410
-395 -476 -34 -38 -98 -116 -142 -171 l-82 -101 32 -30 c18 -16 82 -70 142
-119 61 -49 112 -91 115 -94 3 -3 28 -24 55 -45 51 -41 216 -177 386 -320 53
-44 139 -115 190 -157 52 -42 103 -85 114 -95 11 -10 50 -42 87 -71 37 -30 77
-65 88 -79 l20 -25 -36 -44 c-20 -24 -40 -44 -45 -44 -9 0 -150 112 -240 191
-32 27 -88 75 -126 107 -86 71 -250 207 -283 236 -14 11 -72 59 -129 106 -148
121 -350 288 -463 383 l-98 81 23 27 c12 15 88 106 168 201 80 95 222 265 315
378 93 113 259 312 368 443 l198 237 31 -25 c18 -15 64 -52 102 -83z m278 31
c183 -151 401 -329 546 -446 80 -65 160 -131 176 -146 17 -14 86 -71 154 -126
335 -271 440 -359 440 -370 1 -5 -18 -28 -41 -52 -49 -50 -49 -50 -158 47 -64
57 -311 259 -436 355 -36 28 -103 84 -114 95 -3 3 -45 39 -95 80 -49 41 -99
83 -110 94 -11 10 -36 30 -55 44 -34 26 -191 154 -280 230 -60 51 -116 89
-105 72 10 -17 -5 -8 -60 34 -63 48 -66 56 -42 91 36 50 60 75 73 75 7 0 55
-35 107 -77z m-200 -322 c17 -17 -65 -25 -125 -12 -36 7 -65 8 -75 3 -30 -15
-113 -33 -124 -26 -18 11 12 34 45 34 17 0 38 5 46 10 18 12 220 4 233 -9z
m89 -68 c24 -21 62 -51 83 -68 97 -74 406 -323 465 -374 36 -31 108 -91 160
-134 136 -110 196 -164 189 -171 -3 -3 -27 -3 -53 0 -40 6 -60 18 -124 73 -42
36 -155 129 -251 206 -95 77 -207 168 -250 202 -42 35 -82 60 -89 58 -7 -3
-11 -1 -8 4 6 8 -8 21 -129 120 -50 41 -69 49 -80 32 -5 -9 61 -68 214 -190
383 -306 609 -491 599 -491 -2 0 -41 -5 -86 -10 l-83 -11 -25 31 c-14 16 -80
74 -146 127 -66 54 -154 126 -196 161 -43 34 -93 75 -112 90 -19 15 -81 64
-136 109 -119 95 -142 109 -156 95 -11 -11 43 -58 332 -288 102 -81 187 -150
190 -153 7 -8 135 -110 183 -146 20 -15 37 -31 37 -36 0 -4 -27 -22 -59 -39
-81 -43 -183 -151 -221 -233 -68 -144 -74 -296 -19 -435 16 -41 29 -78 29 -83
0 -13 -171 -229 -181 -229 -8 0 -41 25 -208 163 -65 54 -125 96 -132 95 -8 -2
-13 2 -12 8 1 6 -30 37 -70 70 -39 32 -96 82 -126 110 -50 45 -237 200 -377
311 -61 49 -70 61 -55 76 19 19 12 86 -14 131 l-25 42 21 53 c19 51 19 56 4
108 l-16 55 58 69 c32 38 74 89 93 113 39 49 226 273 247 296 8 8 25 29 38 45
23 28 30 30 92 31 45 0 81 7 106 19 33 17 43 17 82 7 59 -16 94 -15 125 2 38
21 45 19 92 -21z m-953 -673 c1 -20 -7 -52 -17 -72 l-19 -36 29 -43 c21 -32
28 -53 26 -79 -4 -46 -21 -41 -29 7 -3 21 -16 55 -28 76 l-23 37 22 52 c18 41
20 56 11 75 -8 18 -8 30 1 46 l12 22 7 -25 c4 -14 7 -41 8 -60z m1804 -119 c6
-6 -5 -28 -30 -58 -22 -26 -64 -79 -94 -118 -196 -249 -327 -416 -359 -455
-20 -25 -42 -55 -49 -67 -18 -35 -30 -28 -56 30 -17 36 -27 80 -31 137 -12
170 43 312 159 412 91 79 152 111 247 129 54 10 200 3 213 -10z m468 -29 c24
-15 117 -90 489 -393 69 -56 142 -115 164 -133 21 -17 43 -36 50 -41 6 -6 56
-46 111 -90 55 -44 165 -134 245 -201 150 -125 438 -359 471 -383 10 -7 19
-18 19 -23 0 -10 -81 -110 -275 -338 -59 -69 -141 -168 -183 -220 -42 -52 -81
-100 -87 -106 -7 -7 -39 -45 -73 -85 -91 -110 -419 -508 -456 -554 l-32 -39
-33 23 c-18 13 -68 53 -111 90 -42 36 -109 91 -147 121 -38 30 -128 104 -199
163 -71 59 -147 123 -169 141 -22 18 -101 85 -176 147 -75 63 -207 173 -294
244 -212 173 -342 282 -387 323 l-37 34 27 37 c30 41 42 51 59 51 10 0 122
-90 268 -215 28 -24 69 -58 92 -77 130 -104 293 -236 328 -267 49 -44 78 -68
235 -196 123 -100 481 -396 512 -422 14 -13 22 -7 74 59 32 40 74 91 94 114
19 22 69 82 110 134 63 78 233 283 316 380 115 135 213 252 281 336 l82 101
-32 29 c-53 49 -141 121 -372 305 -121 97 -227 182 -235 190 -8 8 -40 33 -70
56 -30 23 -68 54 -85 68 -16 15 -45 39 -64 53 -19 15 -78 63 -131 107 -246
203 -305 251 -326 265 -21 15 -88 69 -148 122 l-31 27 40 40 c44 46 50 48 86
23z m-74 -159 c86 -73 120 -101 378 -308 116 -93 251 -203 301 -245 120 -99
152 -125 331 -269 84 -67 155 -125 158 -130 3 -6 1 -29 -4 -52 -11 -47 1 -88
39 -136 19 -25 19 -26 1 -52 -29 -41 -34 -83 -15 -124 l17 -36 -55 -63 c-51
-59 -236 -280 -372 -447 -95 -116 -88 -111 -145 -104 -42 5 -60 1 -115 -25
-63 -29 -68 -30 -101 -16 -44 18 -73 18 -109 -1 -28 -15 -29 -15 -150 82 -137
109 -331 269 -361 296 -11 11 -47 40 -80 65 -33 25 -62 49 -65 53 -3 4 -48 43
-101 86 -53 43 -150 123 -216 179 -66 55 -152 125 -191 155 -39 30 -69 59 -67
66 2 6 56 77 119 156 l116 143 59 12 c76 14 116 33 163 78 87 81 128 175 128
288 l0 70 103 135 c99 132 155 201 163 201 2 0 34 -26 71 -57z m-380 -397 c-5
-53 -48 -150 -86 -194 -36 -42 -183 -106 -169 -74 6 15 250 322 255 322 3 0 3
-24 0 -54z m1603 -618 c0 -18 9 -52 20 -75 16 -35 16 -43 5 -43 -8 0 -15 5
-15 10 0 6 -10 24 -21 40 -17 22 -20 36 -15 64 9 45 26 47 26 4z m33 -205 c-5
-67 -12 -93 -23 -93 -14 0 -13 54 2 101 15 53 26 49 21 -8z m301 -128 c21 -19
36 -39 34 -44 -3 -9 -99 -127 -303 -371 -44 -52 -85 -101 -92 -108 -7 -8 -26
-30 -41 -50 -15 -21 -29 -39 -32 -42 -3 -3 -80 -95 -170 -204 -91 -109 -184
-219 -206 -245 l-42 -45 -45 34 -45 35 43 50 c23 28 54 64 68 80 22 26 82 99
307 373 30 37 111 134 180 216 69 82 136 163 150 180 26 33 151 176 154 176 1
0 19 -16 40 -35z m-908 -670 c18 -13 15 -14 -29 -15 -31 0 -67 -9 -102 -26
-50 -25 -57 -26 -99 -14 -24 6 -58 9 -75 5 -33 -7 -41 4 -16 25 9 7 28 10 47
6 99 -17 102 -17 143 8 46 28 102 33 131 11z"/>
<path d="M8045 8691 c-81 -21 -135 -69 -178 -159 -25 -53 -29 -72 -25 -120 9
-119 80 -206 187 -228 80 -16 142 -4 211 44 62 42 109 120 117 194 6 53 -27
146 -67 192 -54 60 -169 97 -245 77z m138 -53 c36 -19 12 -33 -50 -30 -55 3
-63 1 -86 -24 -50 -53 -45 -91 22 -168 42 -49 50 -73 29 -94 -33 -33 -97 3
-116 66 -14 47 -37 60 -53 30 -13 -24 3 -91 28 -120 11 -12 11 -18 2 -24 -18
-11 -56 38 -70 88 -13 49 -6 142 11 163 7 8 10 22 6 30 -3 9 -2 14 3 11 4 -3
19 6 32 20 25 27 67 52 109 65 28 9 106 1 133 -13z m91 -70 c126 -153 -47
-401 -244 -348 -58 16 -47 35 21 35 65 0 104 22 124 68 16 39 7 65 -45 125
-61 68 -52 125 16 108 18 -5 31 -20 45 -50 18 -41 43 -64 52 -48 17 29 15 62
-4 86 -20 25 -20 56 -1 56 5 0 21 -14 36 -32z"/>
<path d="M7536 8325 c-7 -18 6 -30 199 -185 77 -62 143 -118 148 -124 5 -8 10
-6 17 4 5 8 10 18 10 21 0 4 -44 41 -97 83 -54 42 -125 99 -158 127 -100 84
-112 91 -119 74z"/>
<path d="M7460 8250 c-12 -9 -7 -18 30 -51 25 -23 64 -55 86 -72 23 -18 85
-68 138 -111 81 -67 100 -77 117 -70 20 9 20 11 -14 34 -19 14 -75 59 -124
100 -48 41 -108 91 -133 110 -25 19 -52 42 -61 52 -19 21 -19 21 -39 8z"/>
<path d="M9372 7591 c-67 -23 -116 -62 -164 -132 -75 -109 -85 -191 -31 -277
66 -107 212 -131 304 -51 22 19 22 22 9 46 -8 13 -27 32 -41 40 -24 15 -28 14
-48 -6 -36 -36 -116 -23 -141 25 -36 66 50 217 147 260 48 21 71 17 105 -16
27 -27 30 -35 24 -73 -6 -41 -6 -42 39 -71 25 -15 47 -27 49 -25 16 19 26 56
26 97 0 93 -84 179 -190 196 -21 3 -56 -2 -88 -13z"/>
<path d="M9836 7522 c-7 -11 3 -23 55 -65 46 -37 79 -48 79 -24 -1 14 -101 97
-118 97 -6 0 -13 -4 -16 -8z"/>
<path d="M10125 7494 c-16 -20 -43 -55 -61 -77 l-32 -41 52 -40 c121 -93 266
-209 346 -275 47 -39 87 -71 90 -70 3 0 31 35 63 77 55 73 57 77 38 92 -10 8
-118 95 -239 193 -121 97 -222 177 -224 177 -3 0 -17 -16 -33 -36z m239 -176
c104 -84 194 -160 199 -170 8 -12 5 -25 -14 -52 -13 -20 -31 -36 -40 -36 -8 0
-42 22 -75 48 -67 54 -58 47 -222 182 l-123 101 31 39 c18 22 37 40 44 40 6 0
96 -69 200 -152z"/>
<path d="M9897 7145 c-86 -33 -141 -90 -171 -179 -60 -178 76 -350 264 -333
64 5 103 23 155 69 61 53 80 100 80 199 0 84 -1 88 -38 141 -65 96 -192 141
-290 103z m142 -36 c17 -6 31 -18 31 -26 0 -12 -8 -15 -40 -10 -51 7 -107 -8
-120 -32 -26 -49 -13 -108 36 -165 41 -48 45 -91 10 -107 -38 -18 -84 12 -91
59 -10 58 -13 64 -37 60 -33 -4 -38 -79 -9 -119 27 -36 28 -53 2 -39 -11 5
-32 35 -47 65 -22 47 -26 64 -21 106 7 58 52 144 89 172 56 42 137 57 197 36z
m123 -106 c52 -93 38 -182 -43 -266 -63 -64 -148 -84 -225 -52 -34 14 -44 44
-13 37 78 -20 114 -14 153 25 37 37 31 83 -18 147 -60 79 -62 130 -4 124 28
-3 35 -9 48 -44 27 -74 64 -97 76 -49 8 34 -2 71 -27 94 -12 11 -18 25 -14 31
13 22 38 4 67 -47z"/>
<path d="M9464 6758 c-9 -15 64 -80 215 -193 15 -11 89 -71 164 -133 86 -71
143 -112 152 -108 8 3 15 9 15 13 -1 4 -40 40 -87 78 -47 39 -119 97 -159 130
-254 209 -288 233 -300 213z"/>
<path d="M9397 6673 c-14 -13 -5 -23 111 -114 64 -51 155 -125 202 -164 162
-135 207 -166 219 -151 10 12 -8 30 -90 98 -157 128 -423 338 -430 338 -3 0
-9 -3 -12 -7z"/>
<path d="M4074 8308 c3 -733 6 -1375 6 -1425 l0 -93 555 0 555 0 0 1425 0
1425 -561 0 -561 0 6 -1332z"/>
<path d="M2660 6905 l0 -1085 550 0 550 0 0 768 c0 422 2 826 5 897 3 72 2
214 -2 318 l-6 187 -549 0 -548 0 0 -1085z"/>
<path d="M7160 7253 c-91 -41 -226 -102 -300 -135 -74 -34 -168 -76 -208 -95
-41 -18 -75 -33 -77 -33 -5 0 -219 -102 -225 -107 -5 -4 65 -68 142 -130 26
-21 49 -43 52 -50 3 -7 -14 -26 -37 -42 -94 -66 -1185 -792 -1302 -866 -69
-44 -189 -120 -266 -170 -76 -49 -161 -103 -188 -120 -27 -16 -48 -31 -47 -33
2 -1 59 20 127 47 68 27 165 63 214 81 79 29 299 116 778 307 137 54 153 64
412 248 28 19 110 77 183 128 73 50 172 120 220 155 48 34 92 62 99 62 6 0 63
-57 126 -127 151 -170 143 -164 157 -111 6 24 15 54 20 68 14 38 106 344 161
535 27 94 68 236 92 318 24 81 41 147 38 146 -3 0 -80 -34 -171 -76z"/>
<path d="M2315 5398 c2 -24 4 -643 4 -1375 l1 -1333 155 0 155 0 0 1375 0
1375 -159 0 -159 0 3 -42z"/>
<path d="M6260 5150 l0 -240 -55 0 -55 0 2 -187 3 -188 52 -3 52 -3 4 -762 c4
-827 6 -846 61 -955 61 -120 183 -166 346 -131 l50 11 0 186 0 187 -61 0 c-56
0 -64 3 -83 28 -21 28 -21 31 -21 733 l0 704 55 1 c30 1 67 1 83 0 l27 -2 0
190 0 191 -79 0 c-62 0 -80 3 -85 16 -3 8 -4 116 -1 240 l5 224 -150 0 -150 0
0 -240z"/>
<path d="M10160 5151 l0 -238 -56 -6 c-31 -3 -57 -7 -59 -9 -7 -8 -14 -344 -8
-353 5 -5 30 -11 57 -12 27 -1 51 -4 54 -7 2 -3 8 -353 12 -778 8 -820 10
-842 58 -933 31 -59 72 -102 116 -120 54 -23 160 -30 228 -16 l57 12 3 184 3
184 -64 3 c-57 3 -66 6 -85 31 -21 28 -21 31 -19 735 l3 707 80 -3 80 -2 2
175 c0 96 1 181 2 188 1 8 -24 13 -87 15 l-87 3 6 239 7 240 -152 0 -151 0 0
-239z"/>
<path d="M3325 4933 c-53 -15 -140 -99 -177 -173 l-23 -45 -3 98 -3 97 -149 0
-150 0 0 -1110 0 -1110 150 0 151 0 -1 871 c-1 856 -1 871 19 912 24 49 71 82
105 73 14 -3 31 -21 42 -43 18 -36 19 -77 17 -925 l-2 -888 145 0 144 0 2 418
c5 1212 2 1453 -17 1547 -34 173 -99 271 -185 279 -25 3 -54 2 -65 -1z"/>
<path d="M4839 4930 c-102 -18 -177 -82 -236 -202 -85 -171 -96 -292 -91
-1018 4 -611 7 -640 70 -803 39 -103 115 -187 194 -217 103 -38 244 -21 321
40 50 39 93 112 123 210 34 110 47 207 54 408 l6 142 -139 0 -138 0 -6 -167
c-3 -93 -10 -186 -16 -208 -19 -78 -94 -110 -141 -60 -38 41 -49 131 -50 408
l0 247 245 0 245 0 0 278 c0 315 -11 478 -40 600 -61 258 -202 378 -401 342z
m78 -360 c16 -6 37 -23 46 -39 23 -39 39 -192 35 -346 l-3 -130 -100 0 -100 0
-3 100 c-4 121 14 315 32 360 11 24 49 65 62 65 0 0 14 -5 31 -10z"/>
<path d="M5660 4925 c-131 -37 -205 -153 -245 -385 -28 -158 -14 -358 34 -488
44 -123 79 -187 190 -352 124 -186 168 -270 187 -359 35 -168 -1 -321 -77
-321 -42 0 -66 15 -86 53 -21 40 -42 153 -42 230 l-1 57 -84 0 c-46 0 -104 -3
-130 -6 l-46 -7 0 -51 c0 -28 5 -90 10 -136 38 -310 153 -474 341 -488 140
-10 248 45 306 154 52 99 84 231 90 375 11 265 -49 458 -223 711 -190 279
-208 320 -209 478 0 97 3 120 20 149 28 48 57 56 93 26 36 -30 50 -78 54 -187
l3 -88 129 0 129 0 -6 133 c-8 199 -48 327 -131 423 -68 79 -192 110 -306 79z"/>
<path d="M7291 4925 c-42 -19 -111 -92 -143 -151 -12 -24 -27 -44 -31 -44 -5
0 -7 39 -6 88 l2 87 -147 3 -146 3 0 -1111 0 -1110 145 0 145 0 0 864 c0 845
0 864 20 909 34 76 97 110 132 70 43 -49 42 -26 40 -955 l-2 -888 145 0 145 0
2 878 c3 868 3 877 24 917 41 79 116 87 141 15 9 -26 12 -262 12 -922 l1 -888
148 0 147 0 -2 723 c-5 1168 -6 1220 -33 1302 -31 98 -52 136 -99 178 -38 34
-45 37 -105 37 -57 0 -68 -4 -108 -34 -25 -19 -67 -66 -93 -105 -27 -39 -52
-68 -56 -64 -3 5 -15 30 -25 58 -24 64 -87 130 -139 144 -52 14 -73 13 -114
-4z"/>
<path d="M8543 4930 c-94 -20 -177 -89 -228 -191 -38 -73 -73 -223 -85 -353
-13 -141 -13 -1070 0 -1196 24 -242 112 -428 234 -493 35 -19 57 -22 146 -22
91 0 111 4 150 24 111 58 181 188 214 396 12 78 21 279 17 383 -1 9 -36 12
-141 12 l-140 0 0 -157 c0 -223 -26 -303 -95 -303 -39 0 -55 11 -78 54 -21 39
-22 55 -25 334 l-4 292 247 0 247 0 -5 368 c-6 414 -17 501 -82 639 -77 164
-218 245 -372 213z m108 -367 c48 -29 59 -85 59 -315 l0 -198 -101 0 -101 0 4
208 c5 206 13 256 45 294 9 9 25 19 37 21 11 2 23 5 24 6 2 0 17 -7 33 -16z"/>
<path d="M9649 4927 c-20 -8 -50 -24 -67 -36 -35 -24 -96 -104 -111 -144 -20
-53 -31 -28 -31 68 l0 96 -142 -3 -143 -3 -3 -1108 -2 -1108 147 3 148 3 5
880 5 880 24 38 c39 63 98 69 132 13 18 -30 19 -64 19 -924 l0 -893 148 3 147
3 3 865 c3 935 -1 1056 -44 1191 -32 103 -97 178 -159 185 -22 2 -56 -2 -76
-9z"/>
<path d="M3674 4858 c6 -53 40 -385 56 -553 5 -49 20 -196 34 -325 37 -341 83
-771 102 -955 9 -88 21 -198 28 -245 l11 -85 161 -3 162 -2 11 97 c6 54 24
235 41 403 44 448 79 774 91 864 6 44 14 116 19 160 5 45 16 146 24 226 16
143 46 448 46 463 0 4 -58 7 -129 7 l-129 0 -6 -52 c-3 -29 -13 -138 -21 -243
-8 -104 -22 -257 -30 -340 -8 -82 -24 -294 -35 -470 -27 -400 -29 -427 -41
-420 -5 4 -9 38 -9 78 0 39 -4 121 -10 181 -5 61 -21 255 -35 431 -14 176 -30
367 -35 425 -5 58 -15 174 -22 258 l-12 152 -138 0 -139 0 5 -52z"/>
<path d="M9355 2498 c-3 -7 -4 -209 -3 -448 l3 -435 73 -3 72 -3 0 193 c0 164
3 198 18 228 13 27 24 36 48 38 57 6 63 -18 66 -250 l3 -203 73 -3 74 -3 -4
238 c-3 227 -4 240 -26 284 -27 52 -65 79 -111 79 -42 0 -97 -24 -113 -49 -7
-12 -16 -21 -20 -21 -5 0 -8 83 -8 185 l0 185 -70 0 c-47 0 -72 -4 -75 -12z"/>
<path d="M8541 2439 c-39 -43 -31 -132 15 -149 71 -27 124 6 124 77 0 58 -30
93 -80 93 -27 0 -45 -7 -59 -21z"/>
<path d="M2240 2036 c0 -469 -9 -426 91 -426 l59 0 0 420 0 420 -75 0 -75 0 0
-414z"/>
<path d="M7280 2025 l0 -416 73 4 72 4 3 411 2 412 -75 0 -75 0 0 -415z"/>
<path d="M4533 2342 c-22 -3 -23 -8 -23 -79 l0 -76 -34 6 -35 6 4 -62 c3 -59
5 -62 32 -67 l28 -5 6 -185 c6 -167 8 -189 28 -222 25 -41 64 -58 138 -58 69
0 73 4 73 75 l0 64 -37 3 c-32 3 -38 7 -45 36 -5 17 -7 89 -6 160 l3 127 33 2
c57 3 62 8 62 66 l0 54 -50 7 -50 7 0 69 c0 59 -3 70 -19 75 -18 5 -59 4 -108
-3z"/>
<path d="M6778 2342 l-67 -3 -3 -72 -3 -72 -33 3 -33 2 3 -62 c3 -61 4 -63 33
-68 l30 -5 7 -188 c8 -208 15 -234 74 -262 33 -15 101 -20 142 -9 21 6 23 11
20 68 l-3 61 -37 3 c-33 3 -38 7 -43 35 -3 18 -5 91 -3 162 l3 130 40 1 40 0
0 65 0 64 -33 1 c-43 0 -52 16 -52 86 0 31 -3 58 -7 60 -5 2 -38 2 -75 0z"/>
<path d="M9973 2342 l-63 -3 0 -62 c0 -74 -7 -88 -42 -82 -23 4 -27 1 -33 -24
-3 -16 -3 -45 0 -65 6 -30 11 -35 39 -38 l31 -3 3 -180 c3 -205 12 -243 67
-269 35 -17 131 -21 154 -7 8 5 14 30 15 67 l1 58 -35 2 c-19 1 -38 2 -43 3
-4 1 -6 74 -5 163 l3 162 35 4 c19 2 38 9 43 15 12 19 4 112 -10 113 -7 1 -26
2 -43 3 l-30 1 0 69 c0 47 -4 70 -12 72 -7 2 -41 3 -75 1z"/>
<path d="M2699 2170 c-21 -22 -41 -40 -43 -40 -3 0 -3 13 0 29 l6 29 -68 4
c-38 2 -71 2 -74 0 -2 -2 -6 -133 -8 -293 l-4 -289 76 0 76 0 0 193 c0 163 3
197 18 227 13 27 24 36 49 38 25 3 35 -2 50 -24 16 -25 18 -52 18 -229 l0
-200 73 -3 72 -3 0 228 c0 240 -6 284 -43 325 -32 36 -59 48 -113 48 -42 0
-51 -4 -85 -40z"/>
<path d="M3672 2197 c-122 -46 -181 -192 -152 -372 24 -148 101 -224 228 -225
43 0 75 6 101 20 41 21 103 96 99 119 -2 7 -24 25 -50 38 l-48 25 -33 -36
c-38 -40 -69 -46 -106 -20 -24 17 -63 92 -55 106 3 4 75 8 161 8 l156 0 -7 88
c-12 162 -83 253 -203 259 -32 1 -73 -3 -91 -10z m101 -116 c25 -10 57 -65 57
-100 0 -20 -5 -21 -85 -21 -79 0 -85 1 -85 20 0 12 9 38 20 59 25 50 46 60 93
42z"/>
<path d="M4136 2185 c-52 -36 -73 -62 -85 -112 -12 -48 -6 -92 21 -146 18 -37
57 -61 155 -97 29 -11 42 -29 49 -68 1 -7 -8 -20 -21 -28 -30 -20 -70 -12
-116 22 -18 13 -36 24 -40 24 -3 0 -23 -21 -43 -47 l-38 -48 38 -33 c47 -41
102 -56 181 -49 116 9 173 66 173 173 0 34 -4 74 -9 87 -15 40 -65 81 -122
101 -68 24 -89 42 -89 77 0 39 30 54 75 39 18 -6 39 -18 45 -26 7 -7 16 -14
20 -14 13 0 70 88 65 102 -13 33 -79 62 -150 66 -63 3 -74 1 -109 -23z"/>
<path d="M5043 2194 c-18 -9 -35 -25 -39 -36 -8 -25 -29 -18 -29 10 0 12 -3
22 -7 22 -5 0 -37 0 -73 0 l-65 0 2 -287 3 -288 70 0 70 0 5 205 c5 214 11
243 50 255 17 5 57 -10 72 -28 1 -1 4 -99 7 -217 l6 -215 70 0 70 0 -3 55 c-2
30 -1 123 3 207 7 141 9 154 31 178 29 31 39 31 69 0 25 -24 25 -25 25 -218 0
-141 3 -198 13 -211 10 -14 25 -17 72 -14 l60 3 0 240 c0 265 -2 276 -65 329
-55 46 -141 32 -196 -31 l-21 -24 -40 40 c-35 36 -46 41 -84 41 -24 0 -58 -8
-76 -16z"/>
<path d="M5780 2203 c-8 -3 -35 -19 -59 -36 -63 -43 -94 -115 -99 -231 -7
-148 25 -242 104 -302 52 -40 152 -46 219 -14 45 22 105 88 105 116 0 14 -69
54 -93 54 -8 0 -28 -13 -45 -30 -31 -29 -63 -37 -97 -24 -19 8 -55 75 -55 104
0 19 6 20 155 20 l156 0 -7 78 c-13 142 -49 213 -128 251 -41 20 -121 27 -156
14z m108 -133 c22 -21 45 -87 36 -102 -7 -11 -153 -7 -161 5 -17 28 44 117 81
117 12 0 32 -9 44 -20z"/>
<path d="M6351 2175 c-46 -42 -51 -43 -51 -10 0 24 -2 25 -70 25 l-70 0 0
-285 0 -285 33 0 c17 -1 49 -3 69 -6 l37 -5 3 203 c3 175 5 207 21 229 25 38
52 42 85 14 l27 -23 5 -209 5 -208 49 -3 c27 -2 60 -1 73 3 l24 6 -4 227 c-3
206 -5 231 -24 274 -26 58 -71 88 -130 88 -35 0 -50 -7 -82 -35z"/>
<path d="M7763 2190 c-18 -11 -38 -29 -45 -40 -18 -28 -28 -25 -28 10 0 29 -1
30 -47 30 -27 0 -58 3 -70 6 l-23 6 0 -296 0 -296 69 0 c85 0 82 -10 80 227
-1 160 1 178 18 202 24 32 73 40 94 15 11 -13 15 -67 19 -228 l5 -211 73 -3
74 -3 -4 238 c-4 262 -9 287 -70 338 -37 31 -99 33 -145 5z"/>
<path d="M8185 2195 c-57 -20 -102 -73 -110 -129 -16 -104 25 -167 146 -225
57 -28 75 -41 77 -59 4 -28 -23 -62 -50 -62 -22 0 -75 25 -100 47 -21 19 -30
13 -67 -40 -28 -41 -28 -44 -13 -64 33 -42 81 -58 172 -58 104 0 144 19 178
85 19 36 23 57 20 106 -5 88 -36 125 -144 175 -91 41 -101 56 -66 99 15 18 24
21 50 16 17 -4 43 -16 57 -28 l25 -20 20 24 c11 12 19 26 20 30 0 4 7 14 16
23 15 15 15 18 -7 42 -48 52 -140 68 -224 38z"/>
<path d="M8895 2194 c-81 -44 -116 -115 -122 -249 -9 -160 36 -284 117 -325
70 -35 130 -24 184 35 l27 30 -7 -75 c-8 -93 -24 -125 -68 -140 -48 -16 -104
1 -146 45 -30 31 -35 33 -50 20 -9 -8 -27 -38 -40 -65 l-24 -50 30 -31 c43
-46 104 -69 182 -69 97 0 140 15 188 65 63 65 66 86 71 468 l5 337 -77 0 -77
0 6 -25 c8 -33 -1 -32 -40 6 -40 39 -111 49 -159 23z m132 -124 c47 -17 64
-58 65 -153 1 -94 -16 -145 -55 -166 -64 -34 -108 18 -115 140 -5 89 8 140 45
169 30 24 23 22 60 10z"/>
<path d="M10300 2188 c-75 -39 -107 -108 -90 -196 12 -65 37 -92 125 -138 88
-45 112 -71 96 -103 -23 -42 -75 -39 -136 9 -20 16 -41 27 -46 24 -19 -12 -69
-93 -64 -106 3 -7 27 -27 53 -43 43 -27 55 -30 132 -30 100 0 132 15 174 79
24 36 27 49 24 107 -5 88 -30 121 -134 174 -67 34 -79 44 -82 68 -7 59 40 74
101 33 l36 -25 35 44 c20 24 36 47 36 52 0 10 -57 49 -93 62 -47 18 -119 13
-167 -11z"/>
<path d="M3002 2179 c6 -26 121 -469 138 -531 l11 -38 80 0 c73 0 80 2 89 23
10 23 130 442 148 515 l10 42 -73 0 -73 0 -20 -87 c-11 -49 -28 -126 -38 -173
-19 -97 -30 -124 -37 -100 -6 16 -34 141 -64 278 l-18 82 -62 0 c-34 0 -69 3
-79 7 -14 5 -16 2 -12 -18z"/>
<path d="M8597 2193 l-67 -4 2 -287 3 -286 68 -3 67 -2 0 295 c0 162 -1 293
-2 292 -2 -1 -33 -3 -71 -5z"/>
</g>
</svg>
